<svg width="1389" height="3333" viewBox="0 0 1389 3333" fill="none" xmlns="http://www.w3.org/2000/svg">
<path d="M834.919 149.127L849.591 158.664L834.919 149.127ZM834.919 677.127L850.85 684.369L855.657 673.793L847.778 665.257L834.919 677.127ZM786.918 933.127L804.264 930.814L786.918 933.127ZM552.918 3141.13L557.914 3124.36L552.918 3141.13ZM429.449 3314.09C428.876 3323.74 436.232 3332.02 445.88 3332.6C455.528 3333.17 463.814 3325.81 464.387 3316.16L429.449 3314.09ZM1388.17 3.6713C1312.53 -1.73148 1193.94 -1.74961 1083.37 15.8442C1028.08 24.6411 974.153 37.9398 928.38 57.5396C882.806 77.0541 843.699 103.507 820.246 139.59L849.591 158.664C867.738 130.746 899.765 107.866 942.157 89.7141C984.35 71.6472 1035.22 58.9459 1088.87 50.4094C1196.16 33.3366 1311.98 33.3185 1385.67 38.5824L1388.17 3.6713ZM820.246 139.59C720.738 292.679 575.765 323.627 458.919 323.627V358.627C582.073 358.627 741.099 325.575 849.591 158.664L820.246 139.59ZM458.919 323.627C430.301 323.627 385.017 318.318 332.973 311.404C281.525 304.569 224.081 296.259 172.795 290.728C122.072 285.258 74.8971 282.188 44.5955 286.692C36.8515 287.843 29.4003 289.593 22.9279 292.341C16.5865 295.033 9.68991 299.319 5.14061 306.439C-5.44561 323.007 3.73664 340.429 13.3743 352.209L40.4628 330.045C32.1005 319.825 37.5327 320.747 34.634 325.284C33.9285 326.388 33.735 325.776 36.6045 324.558C39.3431 323.395 43.6106 322.223 49.7416 321.312C74.94 317.566 117.765 319.996 169.042 325.526C219.756 330.995 276.312 339.184 328.364 346.1C379.82 352.936 427.536 358.627 458.919 358.627V323.627ZM13.3743 352.209C57.1036 405.656 129.74 398.145 181.086 375.092C207.445 363.257 231.155 346.256 246.407 327.373C261.093 309.19 271.565 283.986 258.112 260.445L227.724 277.809C230.271 282.267 230.743 291.064 219.179 305.381C208.181 318.998 189.392 332.997 166.75 343.162C120.097 364.109 68.7335 364.598 40.4628 330.045L13.3743 352.209ZM258.112 260.445C240.87 230.272 212.532 199.301 179.526 183.367C162.818 175.302 144.218 170.773 125.031 172.993C105.605 175.241 87.0501 184.246 70.5435 200.753L95.2924 225.501C106.785 214.008 118.231 209.013 129.054 207.761C140.117 206.481 152.017 208.952 164.31 214.887C189.304 226.953 212.965 251.982 227.724 277.809L258.112 260.445ZM70.5435 200.753C59.964 211.332 55.3921 224.248 56.249 237.982C57.0498 250.818 62.4946 263.211 69.386 274.419C83.1081 296.734 106.485 320.429 129.816 342.767C153.916 365.842 178.283 387.763 197.146 408.331C206.493 418.522 213.855 427.721 218.801 435.841C223.891 444.196 225.418 449.79 225.418 453.127H260.418C260.418 440.464 255.195 428.307 248.691 417.632C242.044 406.72 232.968 395.607 222.94 384.673C203.054 362.991 176.921 339.412 154.021 317.487C130.352 294.825 110.228 274.02 99.2004 256.085C93.7168 247.168 91.474 240.498 91.1811 235.803C90.9441 232.006 91.8721 228.922 95.2924 225.501L70.5435 200.753ZM225.418 453.127C225.418 463.118 219.522 476.166 206.8 493.537C194.257 510.663 178.265 527.985 161.532 547.855C145.444 566.959 129.064 588.021 118.993 610.12C108.735 632.631 104.337 657.795 114.67 683.626L147.166 670.628C141.499 656.459 143.101 641.623 150.842 624.634C158.772 607.233 172.392 589.295 188.304 570.399C203.571 552.269 221.579 532.591 235.036 514.217C248.314 496.088 260.418 475.136 260.418 453.127H225.418ZM114.67 683.626C116.996 689.441 120.215 695.701 125.23 700.303C131.283 705.859 139.511 708.482 148.184 706.183C155.104 704.349 160.272 699.851 163.566 696.526C167.165 692.893 170.616 688.46 173.83 684.033C187.428 665.301 201.503 640.884 222.869 620.911C243.227 601.88 268.093 589.214 301.536 594.303C336.252 599.586 383.439 624.427 446.355 689.309L471.482 664.944C406.398 597.827 352.586 566.668 306.801 559.701C259.744 552.54 224.61 571.373 198.968 595.343C174.334 618.37 156.409 648.452 145.506 663.471C142.595 667.482 140.39 670.189 138.7 671.896C136.704 673.91 136.95 672.952 139.215 672.352C143.231 671.287 147.068 672.84 148.895 674.517C149.683 675.24 148.84 674.813 147.166 670.628L114.67 683.626ZM446.355 689.309C564.093 810.727 654.781 838.913 724.481 816.808C792.193 795.334 830.694 728.71 850.85 684.369L818.987 669.885C799.142 713.543 766.008 766.92 713.901 783.446C663.783 799.341 586.471 783.527 471.482 664.944L446.355 689.309ZM847.778 665.257C838.88 655.618 825.181 644.732 808.761 644.504C789.32 644.234 775.923 658.294 768.247 677.685C760.641 696.897 756.422 725.747 756.218 766.665C756.013 807.954 759.91 862.978 769.571 935.44L804.264 930.814C794.726 859.276 791.023 805.967 791.218 766.839C791.414 727.34 795.595 703.69 800.789 690.568C803.344 684.114 805.73 681.282 806.994 680.189C807.928 679.381 808.197 679.499 808.275 679.5C809.855 679.522 814.957 681.303 822.06 688.997L847.778 665.257ZM769.571 935.44C781.529 1025.12 771.134 1069.12 753.547 1089.6C737.167 1108.68 709.277 1112.75 666.65 1105.38C645.95 1101.8 623.387 1095.81 599.402 1088.96C575.727 1082.19 550.411 1074.51 525.525 1068.06C476.197 1055.28 423.683 1045.92 378.331 1058.24L387.505 1092.02C423.153 1082.33 467.639 1089.22 516.748 1101.94C541.081 1108.25 565.343 1115.63 589.786 1122.61C613.918 1129.51 638.011 1135.95 660.687 1139.87C704.81 1147.5 750.544 1146.83 780.102 1112.4C808.453 1079.38 816.308 1021.14 804.264 930.814L769.571 935.44ZM378.331 1058.24C290.513 1082.09 233.383 1152.24 208.209 1221.93C195.597 1256.85 190.6 1292.66 194.256 1323.82C197.885 1354.76 210.439 1383.39 235.3 1399.75L254.536 1370.51C241.397 1361.86 231.951 1344.75 229.018 1319.74C226.111 1294.97 229.989 1264.66 241.127 1233.82C263.453 1172.01 313.323 1112.16 387.505 1092.02L378.331 1058.24ZM235.3 1399.75C275.429 1426.15 335.152 1450.77 398.834 1456.56C462.792 1462.37 532.098 1449.23 588.652 1398.11L565.184 1372.14C517.738 1415.03 459.044 1426.88 402.002 1421.7C344.684 1416.49 290.407 1394.11 254.536 1370.51L235.3 1399.75ZM588.652 1398.11C638.94 1352.66 699.38 1318.34 757.199 1304.66C814.924 1290.99 868.026 1298.18 907.457 1332.35L930.379 1305.9C879.81 1262.08 813.912 1255.26 749.137 1270.6C684.456 1285.91 618.896 1323.6 565.184 1372.14L588.652 1398.11ZM907.457 1332.35C949.935 1369.17 990.073 1430.29 1007.12 1488.54C1015.63 1517.59 1017.99 1544.6 1013.19 1566.87C1008.51 1588.55 997.024 1606.11 976.268 1617.91L993.568 1648.34C1023.81 1631.14 1040.83 1604.7 1047.4 1574.26C1053.84 1544.4 1050.21 1511.16 1040.71 1478.71C1021.76 1413.96 977.9 1347.09 930.379 1305.9L907.457 1332.35ZM976.268 1617.91C925.528 1646.77 823.119 1702.14 717.63 1739.11C664.856 1757.61 612.079 1771.22 565.064 1774.87C517.782 1778.54 478.642 1771.96 450.879 1752.74L430.957 1781.52C468.194 1807.3 516.804 1813.72 567.772 1809.76C619.007 1805.79 674.98 1791.15 729.206 1772.14C837.717 1734.11 942.308 1677.49 993.568 1648.34L976.268 1617.91ZM450.879 1752.74C387.452 1708.83 350.62 1659.1 342.754 1623.59C338.96 1606.47 342.246 1595.02 349.253 1587.66C356.794 1579.73 372.263 1572.63 400.918 1572.63V1537.63C367.573 1537.63 340.792 1545.77 323.895 1563.53C306.465 1581.86 303.126 1606.54 308.582 1631.16C319.216 1679.16 364.384 1735.43 430.957 1781.52L450.879 1752.74ZM400.918 1572.63C427.165 1572.63 457.146 1583.98 487.489 1604.22C517.613 1624.31 546.722 1652.27 570.883 1683.16C595.078 1714.09 613.751 1747.26 623.631 1777.42C633.683 1808.11 633.732 1832.73 625.335 1849.16L656.501 1865.09C671.104 1836.52 668.152 1800.9 656.892 1766.52C645.46 1731.62 624.508 1694.91 598.453 1661.6C572.364 1628.24 540.597 1597.57 506.91 1575.1C473.44 1552.78 436.671 1537.63 400.918 1537.63V1572.63ZM625.335 1849.16C616.759 1865.94 593.713 1883.39 558.5 1898.63C524.204 1913.47 481.764 1924.75 439.477 1931.34C397.132 1937.92 355.982 1939.63 324.291 1935.93C308.396 1934.08 295.714 1930.95 286.671 1926.94C277.414 1922.83 274.078 1918.77 273.028 1916.29L240.808 1929.96C246.758 1943.99 259.235 1953.05 272.47 1958.93C285.919 1964.9 302.409 1968.62 320.232 1970.7C355.979 1974.87 400.454 1972.83 444.859 1965.92C489.322 1959 534.757 1947.04 572.398 1930.75C609.123 1914.86 642.077 1893.31 656.501 1865.09L625.335 1849.16ZM273.028 1916.29C272.826 1915.82 272.827 1915.63 272.832 1915.7C272.834 1915.72 272.835 1915.76 272.83 1915.82C272.827 1915.84 272.824 1915.86 272.821 1915.88C272.818 1915.89 272.816 1915.9 272.816 1915.9C272.817 1915.9 272.83 1915.85 272.878 1915.74C272.926 1915.64 273.012 1915.47 273.157 1915.24C273.452 1914.78 273.972 1914.1 274.847 1913.25C278.716 1909.49 286.702 1904.97 299.218 1901.14C323.803 1893.63 358.837 1890.93 391.122 1896.15C424.044 1901.48 449.412 1914.2 460.743 1933C471.207 1950.37 473.4 1979.61 443.964 2028.04L473.873 2046.22C506.438 1992.64 510.88 1948.39 490.719 1914.94C471.426 1882.93 433.293 1867.52 396.715 1861.6C359.5 1855.58 319.033 1858.49 288.993 1867.67C274.196 1872.19 260.089 1878.78 250.442 1888.17C245.475 1893 241.111 1899.14 239.053 1906.68C236.922 1914.48 237.631 1922.47 240.808 1929.96L273.028 1916.29ZM443.964 2028.04C413.443 2078.25 384.96 2123.21 362.523 2160.44C339.849 2198.06 321.632 2230.55 310.435 2258.34C299.39 2285.76 293.862 2311.7 300.658 2334.84C307.779 2359.09 326.898 2375.59 354.024 2387.21L367.812 2355.04C345.937 2345.67 337.306 2335.42 334.24 2324.98C330.849 2313.43 332.695 2296.75 342.9 2271.42C352.954 2246.46 369.862 2216.07 392.5 2178.5C415.376 2140.55 442.394 2098 473.873 2046.22L443.964 2028.04ZM354.024 2387.21C404.766 2408.96 477.611 2427.91 543.487 2433.32C576.419 2436.02 608.545 2435.42 635.719 2429.58C662.526 2423.82 687.381 2412.32 701.549 2390.73L672.287 2371.53C665.455 2381.94 651.31 2390.43 628.367 2395.36C605.791 2400.21 577.417 2400.98 546.349 2398.44C484.226 2393.34 415.071 2375.3 367.812 2355.04L354.024 2387.21ZM701.549 2390.73C705.23 2385.12 712.988 2377.31 725.227 2367.36C737.141 2357.68 752.044 2346.97 768.796 2335.4C801.829 2312.61 842.311 2286.39 876.869 2260.66C894.273 2247.71 910.669 2234.52 924.402 2221.47C937.987 2208.56 949.783 2195.03 957.156 2181.27C964.577 2167.41 968.559 2151.22 962.463 2135C956.501 2119.14 942.517 2107.67 924.251 2099.24L909.584 2131.02C923.819 2137.59 928.335 2143.68 929.701 2147.31C930.933 2150.59 931.072 2155.84 926.305 2164.74C921.491 2173.72 912.755 2184.26 900.293 2196.1C887.98 2207.8 872.813 2220.05 855.967 2232.59C822.025 2257.86 783.257 2282.9 748.915 2306.6C731.979 2318.29 716.164 2329.63 703.156 2340.2C690.473 2350.51 679.106 2361.14 672.287 2371.53L701.549 2390.73ZM924.251 2099.24C856.077 2067.77 769.252 2056.12 695.048 2056.63C657.792 2056.88 623.084 2060.21 594.803 2065.91C580.668 2068.76 567.848 2072.26 556.982 2076.41C546.348 2080.47 536.495 2085.56 529.211 2092.12L552.625 2118.13C555.34 2115.69 560.676 2112.47 569.471 2109.11C578.035 2105.84 588.887 2102.81 601.721 2100.22C627.377 2095.05 659.794 2091.87 695.288 2091.63C766.584 2091.14 847.759 2102.48 909.584 2131.02L924.251 2099.24ZM529.211 2092.12C525.863 2095.13 518.472 2099.99 506.505 2106.56C494.944 2112.92 480.316 2120.24 463.498 2128.27C429.844 2144.36 388.355 2162.86 346.713 2181.68C305.247 2200.41 263.651 2219.44 230.372 2236.33C213.744 2244.78 198.902 2252.83 187.06 2260.17C175.818 2267.13 165.323 2274.61 159.253 2282.19L186.583 2304.06C188.513 2301.65 194.268 2296.87 205.495 2289.92C216.121 2283.33 229.967 2275.79 246.214 2267.54C278.685 2251.06 319.589 2232.34 361.123 2213.57C402.481 2194.89 444.492 2176.15 478.588 2159.85C495.645 2151.7 510.954 2144.06 523.362 2137.24C535.364 2130.64 545.972 2124.12 552.625 2118.13L529.211 2092.12ZM159.253 2282.19C140.998 2305.01 118.955 2354.08 112.088 2402.94C105.313 2451.15 112.48 2508.47 165.092 2534.78L180.744 2503.47C149.356 2487.78 140.523 2452.1 146.748 2407.81C152.881 2364.17 172.838 2321.24 186.583 2304.06L159.253 2282.19ZM165.092 2534.78C189.831 2547.15 217.583 2549.93 245.101 2548.7C272.56 2547.48 301.46 2542.17 328.86 2537.08C356.788 2531.9 383.161 2526.96 407.59 2525.63C431.977 2524.3 452.559 2526.72 469.246 2534.86L484.59 2503.4C460.277 2491.54 432.859 2489.2 405.684 2490.68C378.55 2492.16 349.798 2497.6 322.476 2502.67C294.626 2507.84 268.151 2512.65 243.548 2513.74C219.003 2514.83 198.005 2512.1 180.744 2503.47L165.092 2534.78ZM469.246 2534.86C510.447 2554.95 555.165 2578.45 585.002 2606.19C599.8 2619.95 609.833 2633.77 614.444 2647.58C618.866 2660.82 618.715 2675.21 611.04 2691.77L642.796 2706.49C654.121 2682.05 654.97 2658.43 647.642 2636.49C640.503 2615.11 626.036 2596.55 608.834 2580.56C574.671 2548.8 525.389 2523.3 484.59 2503.4L469.246 2534.86ZM611.04 2691.77C607.552 2699.3 603.445 2703.47 599.328 2705.99C595.069 2708.59 589.579 2710.16 582.316 2710.49C566.96 2711.18 548.022 2706.33 525.662 2700.03C504.836 2694.17 480.554 2686.88 459.111 2686.41C448.022 2686.17 436.451 2687.67 425.739 2692.87C414.733 2698.21 405.81 2706.89 399.441 2718.96L430.395 2735.3C433.526 2729.36 437.166 2726.23 441.019 2724.36C445.166 2722.35 450.751 2721.24 458.35 2721.4C474.282 2721.75 493.5 2727.34 516.174 2733.72C537.314 2739.67 561.876 2746.45 583.895 2745.45C595.319 2744.94 606.985 2742.33 617.586 2735.85C628.329 2729.28 636.784 2719.46 642.796 2706.49L611.04 2691.77ZM399.441 2718.96C374.734 2765.77 400.688 2811.19 432.007 2841.46C448.197 2857.11 467.266 2870.36 485.777 2880.13C504.065 2889.79 522.972 2896.67 538.912 2898.51L542.924 2863.74C532.864 2862.58 518.271 2857.71 502.122 2849.18C486.195 2840.77 469.889 2829.4 456.329 2816.29C428.148 2789.06 417.102 2760.48 430.395 2735.3L399.441 2718.96ZM538.912 2898.51C548.093 2899.57 563.323 2905.7 582.171 2916.73C600.424 2927.41 620.176 2941.57 637.884 2956.5C655.705 2971.54 670.758 2986.78 680.096 2999.49C684.817 3005.91 687.457 3010.87 688.576 3014.21C689.778 3017.81 688.365 3016.7 689.912 3014.12L719.924 3032.13C725.971 3022.05 724.433 3011.07 721.768 3003.11C719.019 2994.89 714.05 2986.59 708.302 2978.77C696.703 2962.98 679.381 2945.72 660.452 2929.75C641.41 2913.69 620.037 2898.34 599.852 2886.52C580.263 2875.06 559.743 2865.68 542.924 2863.74L538.912 2898.51ZM689.912 3014.12C687.257 3018.55 684.364 3024.26 681.428 3030.12C678.381 3036.2 675.084 3042.86 671.323 3049.98C663.793 3064.22 654.804 3079.47 643.889 3092.78C632.95 3106.11 620.695 3116.71 606.889 3122.64C593.486 3128.39 577.576 3130.21 557.914 3124.36L547.922 3157.9C575.259 3166.04 599.6 3163.86 620.697 3154.8C641.39 3145.92 657.885 3130.9 670.947 3114.98C684.031 3099.03 694.293 3081.41 702.263 3066.34C706.252 3058.8 709.767 3051.69 712.721 3045.8C715.785 3039.68 718.079 3035.21 719.924 3032.13L689.912 3014.12ZM557.914 3124.36C533.551 3117.1 512.017 3122.22 494.599 3135.47C478.063 3148.04 466.038 3167.26 457.19 3187.45C439.433 3227.98 431.512 3279.37 429.449 3314.09L464.387 3316.16C466.325 3283.55 473.804 3236.74 489.247 3201.5C496.999 3183.81 506.023 3170.75 515.788 3163.32C524.67 3156.57 534.685 3153.96 547.922 3157.9L557.914 3124.36Z" fill="#FF00A8"/>
</svg>
