<svg width="1275" height="3296" viewBox="0 0 1275 3296" fill="none" xmlns="http://www.w3.org/2000/svg">
<path d="M835.001 149L820.328 139.463V139.463L835.001 149ZM27.0006 341L13.4563 352.082H13.4563L27.0006 341ZM243 269L227.806 277.682L243 269ZM83 213L95.3744 225.374L83 213ZM459.001 677L446.437 689.183L459.001 677ZM835.001 677L850.932 684.242L855.739 673.666L847.86 665.13L835.001 677ZM787 933L769.654 935.313L787 933ZM985 1633L993.65 1648.21L985 1633ZM441 1767L431.039 1781.39L441 1767ZM641 1857L656.583 1864.96H656.583L641 1857ZM257 1923L273.11 1916.17L257 1923ZM459.001 2037L444.046 2027.91H444.046L459.001 2037ZM361 2371L354.106 2387.08H354.106L361 2371ZM541 2105L552.707 2118.01L541 2105ZM173 2293L186.665 2303.93H186.665L173 2293ZM553 3141L557.996 3124.23L553 3141ZM429.531 3313.96C428.958 3323.61 436.314 3331.9 445.962 3332.47C455.61 3333.04 463.896 3325.69 464.469 3316.04L429.531 3313.96ZM1388.25 3.54434C1312.61 -1.85843 1194.02 -1.87657 1083.45 15.7173C1028.17 24.5141 974.235 37.8128 928.462 57.4126C882.888 76.9272 843.781 103.38 820.328 139.463L849.673 158.537C867.82 130.619 899.847 107.739 942.239 89.5871C984.432 71.5202 1035.3 58.819 1088.95 50.2825C1196.25 33.2096 1312.06 33.1915 1385.75 38.4554L1388.25 3.54434ZM820.328 139.463C720.82 292.552 575.847 323.5 459.001 323.5V358.5C582.155 358.5 741.181 325.448 849.673 158.537L820.328 139.463ZM459.001 323.5C412.339 323.5 323.666 309.634 235.705 298.183L231.186 332.89C316.58 344.007 409.323 358.5 459.001 358.5V323.5ZM235.705 298.183C193.401 292.676 151.618 287.798 116.049 285.612L113.903 320.546C148.21 322.654 189.001 327.399 231.186 332.89L235.705 298.183ZM116.049 285.612C97.7335 284.487 80.7747 284.056 66.0644 284.668C51.6125 285.269 38.195 286.91 27.5368 290.5C17.5808 293.854 4.68835 300.826 1.32398 315.611C-1.84313 329.529 5.48461 342.338 13.4563 352.082L40.5448 329.918C34.0104 321.932 36.087 320.584 35.4515 323.377C34.6188 327.036 32.0408 325.915 38.7101 323.669C44.6773 321.658 54.1958 320.191 67.5187 319.637C80.5832 319.094 96.2379 319.461 113.903 320.546L116.049 285.612ZM13.4563 352.082C56.9154 405.198 128.949 398.1 180.18 375.406L166.004 343.405C119.523 363.995 68.6415 364.259 40.5448 329.918L13.4563 352.082ZM180.18 375.406C207.32 363.383 231.75 345.864 247.164 326.402L219.727 304.672C208.673 318.629 189.348 333.064 166.004 343.405L180.18 375.406ZM247.164 326.402C261.461 308.35 271.447 283.509 258.194 260.318L227.806 277.682C230.319 282.081 230.826 290.657 219.727 304.672L247.164 326.402ZM258.194 260.318C240.953 230.145 212.614 199.174 179.608 183.24C162.9 175.175 144.3 170.646 125.113 172.866C105.687 175.114 87.1322 184.119 70.6256 200.626L95.3744 225.374C106.868 213.881 118.313 208.886 129.136 207.634C140.199 206.354 152.099 208.825 164.392 214.76C189.386 226.826 213.047 251.855 227.806 277.682L258.194 260.318ZM70.6256 200.626C62.3395 208.912 57.525 218.855 56.4567 229.882C55.4276 240.503 57.9919 250.819 62.0414 260.191C69.972 278.545 85.4327 297.357 102.277 315.121L127.674 291.038C111.199 273.663 99.4892 258.618 94.1704 246.309C91.5952 240.349 91.0151 236.131 91.2936 233.257C91.5328 230.787 92.4777 228.271 95.3744 225.374L70.6256 200.626ZM102.277 315.121C120.182 334.003 141.613 353.669 161.049 372.103L185.134 346.708C165.043 327.652 144.736 309.031 127.674 291.038L102.277 315.121ZM161.049 372.103C179.526 389.627 196.218 406.05 208.272 420.944C221.022 436.696 225.5 447.123 225.5 453H260.5C260.5 433.85 248.463 414.968 235.478 398.925C221.798 382.022 203.536 364.161 185.134 346.708L161.049 372.103ZM225.5 453C225.5 462.991 219.604 476.039 206.882 493.41C194.339 510.536 178.347 527.858 161.614 547.728C145.526 566.832 129.146 587.894 119.076 609.993C108.817 632.504 104.419 657.668 114.752 683.499L147.248 670.501C141.581 656.332 143.183 641.496 150.924 624.507C158.854 607.106 172.474 589.168 188.386 570.272C203.653 552.142 221.661 532.464 235.118 514.09C248.396 495.961 260.5 475.009 260.5 453H225.5ZM114.752 683.499C117.078 689.314 120.297 695.574 125.312 700.177C131.365 705.732 139.593 708.355 148.266 706.056C155.186 704.222 160.354 699.724 163.648 696.399C167.247 692.766 170.698 688.333 173.912 683.906C187.51 665.175 201.585 640.757 222.951 620.784C243.31 601.753 268.175 589.087 301.618 594.176C336.334 599.459 383.521 624.3 446.437 689.183L471.564 664.817C406.48 597.7 352.668 566.541 306.883 559.574C259.826 552.413 224.692 571.247 199.05 595.216C174.416 618.243 156.491 648.325 145.588 663.344C142.677 667.355 140.472 670.062 138.782 671.769C136.786 673.783 137.032 672.825 139.297 672.225C143.313 671.16 147.15 672.713 148.977 674.39C149.765 675.113 148.922 674.686 147.248 670.501L114.752 683.499ZM446.437 689.183C526.165 771.402 593.147 810.696 649.976 820.823C708.003 831.164 752.748 810.653 785.686 780.159L761.908 754.476C735.377 779.038 701.321 794.422 656.116 786.366C609.713 778.097 549.031 744.705 471.564 664.817L446.437 689.183ZM785.686 780.159C816.775 751.377 837.583 713.609 850.932 684.242L819.069 669.758C806.454 697.512 787.968 730.349 761.908 754.476L785.686 780.159ZM847.86 665.13C840.829 657.514 831.605 649.96 820.798 646.426C808.926 642.544 795.433 643.779 784.055 653.698C773.908 662.544 767.373 676.68 763.156 694.274C758.842 712.27 756.415 736.188 756.297 767.251L791.297 767.384C791.41 737.779 793.744 716.816 797.192 702.433C800.736 687.646 804.964 681.902 807.055 680.08C807.915 679.33 808.133 679.109 809.919 679.693C812.77 680.625 817.149 683.461 822.142 688.87L847.86 665.13ZM756.297 767.251C756.14 808.458 760.047 863.265 769.654 935.313L804.346 930.687C794.863 859.56 791.148 806.452 791.297 767.384L756.297 767.251ZM769.654 935.313C781.611 1024.99 771.216 1068.99 753.629 1089.47C737.249 1108.55 709.359 1112.63 666.732 1105.26C646.032 1101.68 623.469 1095.68 599.484 1088.83C575.809 1082.06 550.493 1074.38 525.607 1067.93C476.279 1055.16 423.765 1045.79 378.413 1058.11L387.587 1091.89C423.235 1082.21 467.721 1089.09 516.83 1101.82C541.163 1108.12 565.425 1115.5 589.868 1122.48C614 1129.38 638.093 1135.82 660.769 1139.74C704.892 1147.37 750.626 1146.7 780.184 1112.28C808.535 1079.26 816.39 1021.01 804.346 930.687L769.654 935.313ZM378.413 1058.11C290.595 1081.96 233.465 1152.11 208.291 1221.8C195.679 1256.72 190.682 1292.53 194.338 1323.7C197.967 1354.63 210.521 1383.26 235.382 1399.62L254.618 1370.38C241.479 1361.74 232.033 1344.62 229.1 1319.62C226.193 1294.84 230.071 1264.53 241.209 1233.7C263.535 1171.89 313.405 1112.04 387.587 1091.89L378.413 1058.11ZM235.382 1399.62C275.511 1426.02 335.234 1450.64 398.916 1456.43C462.874 1462.24 532.18 1449.1 588.734 1397.98L565.266 1372.02C517.82 1414.9 459.126 1426.76 402.084 1421.57C344.766 1416.36 290.489 1393.98 254.618 1370.38L235.382 1399.62ZM588.734 1397.98C639.022 1352.53 699.462 1318.22 757.281 1304.53C815.006 1290.86 868.108 1298.05 907.539 1332.22L930.461 1305.78C879.892 1261.95 813.994 1255.14 749.219 1270.47C684.538 1285.78 618.978 1323.47 565.266 1372.02L588.734 1397.98ZM907.539 1332.22C950.018 1369.04 990.155 1430.16 1007.2 1488.42C1015.71 1517.47 1018.08 1544.48 1013.27 1566.75C1008.59 1588.42 997.106 1605.98 976.35 1617.79L993.65 1648.21C1023.89 1631.02 1040.91 1604.58 1047.48 1574.13C1053.92 1544.27 1050.29 1511.03 1040.8 1478.58C1021.85 1413.84 977.982 1346.96 930.461 1305.78L907.539 1332.22ZM976.35 1617.79C912.554 1654.06 768.292 1731.55 638.649 1762.58L646.796 1796.62C781.708 1764.33 929.741 1684.55 993.65 1648.21L976.35 1617.79ZM638.649 1762.58C560.207 1781.35 492.912 1781.65 450.961 1752.61L431.039 1781.39C486.326 1819.66 567.184 1815.67 646.796 1796.62L638.649 1762.58ZM450.961 1752.61C387.534 1708.7 350.702 1658.97 342.836 1623.46C339.042 1606.34 342.328 1594.9 349.335 1587.53C356.876 1579.6 372.345 1572.5 401 1572.5V1537.5C367.655 1537.5 340.874 1545.65 323.977 1563.41C306.547 1581.73 303.208 1606.41 308.664 1631.04C319.298 1679.03 364.466 1735.3 431.039 1781.39L450.961 1752.61ZM401 1572.5C441.882 1572.5 491.036 1600.06 534.869 1642.75C578.257 1685 612.822 1738.61 625.895 1784.4L659.55 1774.79C644.388 1721.68 605.83 1662.99 559.286 1617.67C513.186 1572.78 455.597 1537.5 401 1537.5V1572.5ZM625.895 1784.4C633.759 1811.95 633.119 1833.97 625.417 1849.04L656.583 1864.96C670.042 1838.63 668.555 1806.34 659.55 1774.79L625.895 1784.4ZM625.417 1849.04C618.283 1863 600.945 1877.71 573.961 1891.32C547.552 1904.64 514.341 1915.69 479.124 1923.67L486.859 1957.8C523.957 1949.39 560.055 1937.54 589.724 1922.57C618.817 1907.9 644.327 1888.94 656.583 1864.96L625.417 1849.04ZM479.124 1923.67C430.767 1934.62 379.991 1939.5 339.883 1937.15C319.758 1935.96 303.194 1933.01 291.218 1928.61C278.758 1924.04 274.354 1919.1 273.11 1916.17L240.89 1929.83C247.744 1945.99 263.234 1955.62 279.16 1961.47C295.571 1967.49 315.886 1970.8 337.83 1972.09C381.859 1974.67 435.981 1969.33 486.859 1957.8L479.124 1923.67ZM273.11 1916.17C272.906 1915.68 272.666 1915.9 273.445 1914.81C274.921 1912.75 278.779 1909.38 286.539 1905.8C301.778 1898.77 325.714 1893.84 352.192 1893.36C378.554 1892.88 405.479 1896.84 426.724 1905.91C447.901 1914.96 461.478 1928.09 466.09 1945.27L499.893 1936.2C491.55 1905.12 467.599 1885.31 440.47 1873.73C413.409 1862.17 381.252 1857.82 351.553 1858.36C321.969 1858.9 292.864 1864.34 271.88 1874.01C261.528 1878.79 251.478 1885.36 244.976 1894.45C237.778 1904.52 235.489 1917.11 240.89 1929.83L273.11 1916.17ZM466.09 1945.27C470.787 1962.77 467.526 1989.28 444.046 2027.91L473.955 2046.09C499.896 2003.41 508.091 1966.73 499.893 1936.2L466.09 1945.27ZM444.046 2027.91C406.589 2089.53 373.155 2141.71 348.287 2184.45L378.539 2202.05C403.263 2159.56 435.785 2108.89 473.955 2046.09L444.046 2027.91ZM348.287 2184.45C320.31 2232.54 300.401 2273.06 298.014 2306.36C296.755 2323.92 300.264 2340.33 310.403 2354.67C320.295 2368.67 335.335 2379.04 354.106 2387.08L367.894 2354.92C352.608 2348.36 343.855 2341.36 338.983 2334.47C334.358 2327.93 332.131 2319.94 332.925 2308.86C334.644 2284.86 349.999 2251.11 378.539 2202.05L348.287 2184.45ZM354.106 2387.08C404.848 2408.83 477.693 2427.79 543.569 2433.19C576.501 2435.89 608.627 2435.29 635.801 2429.45C662.608 2423.69 687.463 2412.19 701.631 2390.6L672.369 2371.4C665.537 2381.81 651.392 2390.31 628.45 2395.23C605.873 2400.08 577.499 2400.86 546.431 2398.31C484.308 2393.21 415.153 2375.17 367.894 2354.92L354.106 2387.08ZM701.631 2390.6C705.312 2384.99 713.07 2377.18 725.309 2367.24C737.223 2357.56 752.126 2346.84 768.878 2335.28C801.911 2312.48 842.393 2286.27 876.951 2260.54C894.355 2247.58 910.751 2234.39 924.484 2221.34C938.069 2208.43 949.865 2194.9 957.238 2181.14C964.659 2167.29 968.641 2151.1 962.546 2134.88C956.583 2119.01 942.599 2107.54 924.333 2099.11L909.667 2130.89C923.901 2137.46 928.417 2143.55 929.783 2147.19C931.015 2150.47 931.154 2155.71 926.387 2164.61C921.573 2173.6 912.837 2184.13 900.375 2195.97C888.062 2207.67 872.895 2219.92 856.049 2232.46C822.107 2257.73 783.339 2282.77 748.997 2306.47C732.061 2318.16 716.246 2329.51 703.238 2340.07C690.555 2350.38 679.188 2361.01 672.369 2371.4L701.631 2390.6ZM924.333 2099.11C856.159 2067.65 769.334 2055.99 695.13 2056.5C657.874 2056.76 623.166 2060.08 594.885 2065.78C580.75 2068.63 567.93 2072.13 557.064 2076.28C546.43 2080.35 536.578 2085.44 529.293 2091.99L552.707 2118.01C555.422 2115.56 560.758 2112.34 569.553 2108.98C578.117 2105.71 588.969 2102.68 601.803 2100.09C627.459 2094.92 659.876 2091.74 695.37 2091.5C766.666 2091.01 847.841 2102.35 909.667 2130.89L924.333 2099.11ZM529.293 2091.99C526.096 2094.87 519.14 2099.48 507.877 2105.72C496.993 2111.76 483.226 2118.7 467.348 2126.34C435.582 2141.62 396.249 2159.24 356.217 2177.3L370.61 2209.2C410.423 2191.24 450.262 2173.4 482.517 2157.88C498.649 2150.12 513.105 2142.84 524.846 2136.34C536.21 2130.04 546.282 2123.79 552.707 2118.01L529.293 2091.99ZM356.217 2177.3C313.215 2196.7 269.423 2216.6 234.275 2234.28C216.711 2243.11 201.01 2251.54 188.507 2259.2C176.646 2266.46 165.603 2274.23 159.335 2282.07L186.665 2303.93C188.7 2301.39 194.844 2296.36 206.787 2289.04C218.087 2282.12 232.804 2274.2 250.003 2265.54C284.379 2248.25 327.492 2228.65 370.61 2209.2L356.217 2177.3ZM159.335 2282.07C141.08 2304.89 119.037 2353.96 112.17 2402.81C105.395 2451.03 112.562 2508.35 165.174 2534.65L180.826 2503.35C149.438 2487.65 140.605 2451.97 146.83 2407.69C152.963 2364.04 172.92 2321.11 186.665 2303.93L159.335 2282.07ZM165.174 2534.65C189.913 2547.02 217.665 2549.8 245.183 2548.58C272.642 2547.36 301.542 2542.04 328.942 2536.96C356.87 2531.78 383.243 2526.84 407.672 2525.51C432.059 2524.18 452.641 2526.59 469.328 2534.73L484.672 2503.27C460.359 2491.41 432.941 2489.07 405.766 2490.56C378.632 2492.04 349.88 2497.47 322.558 2502.54C294.708 2507.71 268.233 2512.52 243.63 2513.61C219.085 2514.7 198.087 2511.98 180.826 2503.35L165.174 2534.65ZM469.328 2534.73C510.529 2554.83 555.247 2578.33 585.084 2606.07C599.882 2619.82 609.915 2633.64 614.526 2647.45C618.948 2660.69 618.797 2675.08 611.122 2691.64L642.878 2706.36C654.203 2681.92 655.052 2658.31 647.724 2636.36C640.585 2614.98 626.118 2596.43 608.916 2580.43C574.753 2548.67 525.471 2523.17 484.672 2503.27L469.328 2534.73ZM611.122 2691.64C607.634 2699.17 603.527 2703.35 599.41 2705.86C595.151 2708.47 589.661 2710.03 582.398 2710.36C567.042 2711.05 548.104 2706.2 525.744 2699.91C504.918 2694.04 480.636 2686.75 459.193 2686.29C448.104 2686.04 436.533 2687.55 425.821 2692.74C414.815 2698.09 405.892 2706.76 399.523 2718.83L430.477 2735.17C433.608 2729.24 437.248 2726.1 441.101 2724.23C445.248 2722.22 450.833 2721.11 458.432 2721.28C474.364 2721.62 493.582 2727.21 516.256 2733.59C537.396 2739.55 561.958 2746.32 583.977 2745.33C595.401 2744.81 607.067 2742.21 617.668 2735.72C628.411 2729.15 636.866 2719.33 642.878 2706.36L611.122 2691.64ZM399.523 2718.83C374.816 2765.65 400.77 2811.07 432.089 2841.33C448.279 2856.98 467.348 2870.23 485.859 2880.01C504.147 2889.66 523.054 2896.55 538.994 2898.38L543.006 2863.62C532.946 2862.45 518.353 2857.59 502.204 2849.06C486.277 2840.65 469.971 2829.27 456.411 2816.17C428.23 2788.93 417.184 2760.35 430.477 2735.17L399.523 2718.83ZM538.994 2898.38C548.175 2899.44 563.405 2905.57 582.253 2916.6C600.506 2927.29 620.258 2941.44 637.966 2956.38C655.787 2971.41 670.84 2986.65 680.178 2999.36C684.899 3005.79 687.539 3010.74 688.658 3014.08C689.86 3017.68 688.447 3016.57 689.994 3014L720.006 3032C726.053 3021.93 724.515 3010.95 721.85 3002.98C719.101 2994.76 714.132 2986.46 708.384 2978.64C696.785 2962.85 679.463 2945.59 660.534 2929.62C641.492 2913.56 620.119 2898.21 599.934 2886.4C580.345 2874.93 559.825 2865.56 543.006 2863.62L538.994 2898.38ZM689.994 3014C687.339 3018.42 684.446 3024.13 681.51 3029.99C678.463 3036.08 675.166 3042.74 671.405 3049.85C663.875 3064.09 654.886 3079.35 643.971 3092.65C633.032 3105.98 620.777 3116.59 606.971 3122.51C593.568 3128.27 577.658 3130.09 557.996 3124.23L548.004 3157.77C575.341 3165.91 599.682 3163.73 620.779 3154.67C641.473 3145.79 657.967 3130.77 671.029 3114.85C684.113 3098.9 694.375 3081.28 702.345 3066.21C706.334 3058.67 709.849 3051.57 712.803 3045.67C715.867 3039.55 718.161 3035.08 720.006 3032L689.994 3014ZM557.996 3124.23C533.633 3116.97 512.099 3122.09 494.681 3135.34C478.145 3147.92 466.12 3167.13 457.272 3187.33C439.515 3227.85 431.594 3279.24 429.531 3313.96L464.469 3316.04C466.407 3283.43 473.886 3236.62 489.329 3201.37C497.081 3183.68 506.105 3170.62 515.87 3163.2C524.752 3156.44 534.767 3153.83 548.004 3157.77L557.996 3124.23Z" fill="#FF00A8"/>
</svg>
